<svg xmlns="http://www.w3.org/2000/svg" viewBox="0 0 100 100">
  <!-- mini roleta: 6 fatias com a paleta do site -->
  <g stroke="#fff" stroke-width="2.5" stroke-linejoin="round">
    <path d="M50,50 L50,2 A48,48 0 0 1 91.57,26 Z" fill="#ff5d73"/>
    <path d="M50,50 L91.57,26 A48,48 0 0 1 91.57,74 Z" fill="#ffc145"/>
    <path d="M50,50 L91.57,74 A48,48 0 0 1 50,98 Z" fill="#5b8cff"/>
    <path d="M50,50 L50,98 A48,48 0 0 1 8.43,74 Z" fill="#43c59e"/>
    <path d="M50,50 L8.43,74 A48,48 0 0 1 8.43,26 Z" fill="#b388ff"/>
    <path d="M50,50 L8.43,26 A48,48 0 0 1 50,2 Z" fill="#ff8e3c"/>
  </g>
  <circle cx="50" cy="50" r="13" fill="#ff5d73" stroke="#fff" stroke-width="4"/>
</svg>
